<svg xmlns="http://www.w3.org/2000/svg" viewBox="0 0 512 512" role="img" aria-labelledby="title desc">
  <title id="title">schema-dsl logo</title>
  <desc id="desc">A schema rule mark combining braces, validation nodes, and a check path.</desc>
  <defs>
    <linearGradient id="surface" x1="72" y1="48" x2="440" y2="464" gradientUnits="userSpaceOnUse">
      <stop offset="0" stop-color="#18181B"/>
      <stop offset="0.56" stop-color="#27272A"/>
      <stop offset="1" stop-color="#111827"/>
    </linearGradient>
    <linearGradient id="rule" x1="134" y1="146" x2="378" y2="360" gradientUnits="userSpaceOnUse">
      <stop offset="0" stop-color="#F97316"/>
      <stop offset="0.5" stop-color="#E11D48"/>
      <stop offset="1" stop-color="#38BDF8"/>
    </linearGradient>
    <linearGradient id="paper" x1="152" y1="128" x2="360" y2="384" gradientUnits="userSpaceOnUse">
      <stop offset="0" stop-color="#FFF7ED"/>
      <stop offset="1" stop-color="#E2E8F0"/>
    </linearGradient>
    <filter id="shadow" x="28" y="34" width="456" height="462" color-interpolation-filters="sRGB" filterUnits="userSpaceOnUse">
      <feDropShadow dx="0" dy="22" stdDeviation="24" flood-color="#020617" flood-opacity="0.34"/>
    </filter>
  </defs>

  <rect x="28" y="28" width="456" height="456" rx="92" fill="url(#surface)"/>
  <path d="M100 151C156 112 234 103 304 126C365 146 407 190 423 248" fill="none" stroke="#FBBF24" stroke-width="3" stroke-linecap="round" opacity="0.22"/>
  <path d="M92 365C154 405 226 416 296 393C360 372 403 326 420 267" fill="none" stroke="#FB7185" stroke-width="3" stroke-linecap="round" opacity="0.2"/>

  <g filter="url(#shadow)">
    <rect x="118" y="108" width="276" height="296" rx="54" fill="#0B0F19" opacity="0.58"/>
    <rect x="134" y="92" width="244" height="300" rx="46" fill="url(#paper)"/>
    <path d="M186 172C166 184 156 205 156 235C156 257 147 270 130 276C147 282 156 295 156 317C156 347 166 368 186 380" fill="none" stroke="#111827" stroke-width="20" stroke-linecap="round" stroke-linejoin="round"/>
    <path d="M326 172C346 184 356 205 356 235C356 257 365 270 382 276C365 282 356 295 356 317C356 347 346 368 326 380" fill="none" stroke="#111827" stroke-width="20" stroke-linecap="round" stroke-linejoin="round"/>

    <path d="M204 178H292" stroke="#111827" stroke-width="18" stroke-linecap="round"/>
    <path d="M204 234H318" stroke="#111827" stroke-width="18" stroke-linecap="round"/>
    <path d="M204 290H276" stroke="#111827" stroke-width="18" stroke-linecap="round"/>

    <circle cx="204" cy="178" r="15" fill="#F97316"/>
    <circle cx="318" cy="234" r="15" fill="#E11D48"/>
    <circle cx="276" cy="290" r="15" fill="#38BDF8"/>
    <path d="M204 178C239 190 281 206 318 234C304 255 292 274 276 290" fill="none" stroke="url(#rule)" stroke-width="12" stroke-linecap="round" stroke-linejoin="round"/>
    <path d="M218 327L246 353L305 314" fill="none" stroke="#16A34A" stroke-width="18" stroke-linecap="round" stroke-linejoin="round"/>
  </g>
</svg>
